<?xml version="1.0" encoding="UTF-8"?>
<svg width="10" height="10" version="1.1" xmlns="http://www.w3.org/2000/svg" xmlns:cc="http://creativecommons.org/ns#" xmlns:dc="http://purl.org/dc/elements/1.1/" xmlns:rdf="http://www.w3.org/1999/02/22-rdf-syntax-ns#">
 <metadata>
  <rdf:RDF>
   <cc:Work rdf:about="">
    <dc:format>image/svg+xml</dc:format>
    <dc:type rdf:resource="http://purl.org/dc/dcmitype/StillImage"/>
    <dc:title/>
   </cc:Work>
  </rdf:RDF>
 </metadata>
 <g transform="translate(-328.04 -707.15)">
  <title>background</title>
  <rect id="canvas_background" x="-1" y="-1" width="582" height="402" fill="none"/>
 </g>
 <g transform="matrix(.05269 0 0 .05269 -12.519 -27.752)">
  <title>Layer 1</title>
  <path d="m334.29 716.89s18.551 0.25781 30.402 0.25781c26.539-26.797 15.461-80.133 13.656-88.121-1.8008-7.9883-10.82-23.703-5.4102-42.516 14.945-54.879-37.59-60.254-39.5-59.914-1.3086-0.4375-55.359 5.0352-40.418 59.914 5.4141 18.812-3.6055 34.527-5.4102 42.516-1.8047 7.9883-12.883 61.324 13.656 88.121 11.852 0 30.406-0.25781 30.406-0.25781z" fill="#1c181a"/>
  <path d="m334.29 716.89s18.551 0.25781 30.402 0.25781c26.539-26.797 15.461-80.133 13.656-88.121-1.8008-7.9883-10.82-23.703-5.4102-42.516 14.945-54.879-36.402-60.609-39.73-60.07-2.207-0.50391-55.129 5.1914-40.188 60.07 5.4141 18.812-3.6055 34.527-5.4102 42.516-1.8047 7.9883-12.883 61.324 13.656 88.121 11.852 0 30.406-0.25781 30.406-0.25781z" fill="#161215"/>
  <path d="m360.65 566.57c0 14.727-11.938 26.668-26.668 26.668-14.727 0-26.664-11.941-26.664-26.668s11.938-26.668 26.664-26.668c14.73 0 26.668 11.941 26.668 26.668" fill="#fff"/>
  <path d="m333.75 540.81c-14.207 0-25.766 11.559-25.766 25.766s11.559 25.766 25.766 25.766 25.766-11.559 25.766-25.766-11.559-25.766-25.766-25.766m0 53.332c-15.203 0-27.566-12.363-27.566-27.566s12.363-27.566 27.566-27.566c15.199 0 27.57 12.363 27.57 27.566s-12.371 27.566-27.57 27.566" fill="#161215"/>
  <ellipse cx="317.12" cy="657.82" rx="26.898" ry="27.535" fill="#ee2123"/>
  <ellipse cx="343.37" cy="630.89" rx="27.252" ry="26.802" fill="#faad1a"/>
  <ellipse cx="323.55" cy="622.55" rx="20.045" ry="19.82" fill="#55c27a"/>
  <ellipse cx="340.22" cy="675.26" rx="27.252" ry="27.928" fill="#5e3f90"/>
  <ellipse cx="356.66" cy="651.83" rx="13.514" ry="13.964" fill="#5280c1"/>
  <ellipse cx="314.54" cy="689.67" rx="12.838" ry="12.613" fill="#e680c0"/>
 </g>
</svg>
