<?xml version="1.0" encoding="UTF-8"?>
<svg width="98.38" height="190.7" version="1.1" xmlns="http://www.w3.org/2000/svg" xmlns:cc="http://creativecommons.org/ns#" xmlns:dc="http://purl.org/dc/elements/1.1/" xmlns:rdf="http://www.w3.org/1999/02/22-rdf-syntax-ns#">
 <metadata>
  <rdf:RDF>
   <cc:Work rdf:about="">
    <dc:format>image/svg+xml</dc:format>
    <dc:type rdf:resource="http://purl.org/dc/dcmitype/StillImage"/>
    <dc:title/>
   </cc:Work>
  </rdf:RDF>
 </metadata>
 <g transform="translate(-235.1 -527.8)">
  <title>Layer 1</title>
  <path d="m285.6 718.3s18.55 0.2578 30.4 0.2578c26.54-26.8 15.46-80.13 13.66-88.12-1.801-7.988-10.82-23.7-5.41-42.52 14.94-54.88-37.59-60.25-39.5-59.91-1.309-0.4375-55.36 5.035-40.42 59.91 5.414 18.81-3.606 34.53-5.41 42.52-1.805 7.988-12.88 61.32 13.66 88.12 11.85 0 30.41-0.2578 30.41-0.2578z" fill="#1c181a"/>
  <path d="m316 718.6c26.54-26.8 15.46-80.13 13.66-88.12-1.801-7.988-10.82-23.7-5.41-42.52 14.94-54.88-36.4-60.61-39.73-60.07-2.207-0.5039-55.13 5.191-40.19 60.07 5.414 18.81-3.606 34.53-5.41 42.52-1.805 7.988-12.88 61.32 13.66 88.12 21.04-0.0171 44.2-0.0283 63.43 0z" fill="#161215"/>
  <path d="m312 568c0 14.73-11.94 26.67-26.67 26.67-14.73 0-26.66-11.94-26.66-26.67s11.94-26.67 26.66-26.67c14.73 0 26.67 11.94 26.67 26.67" fill="#fff"/>
  <path d="m285.1 542.2c-14.21 0-25.77 11.56-25.77 25.77s11.56 25.77 25.77 25.77 25.77-11.56 25.77-25.77-11.56-25.77-25.77-25.77m0 53.33c-15.2 0-27.57-12.36-27.57-27.57s12.36-27.57 27.57-27.57c15.2 0 27.57 12.36 27.57 27.57s-12.37 27.57-27.57 27.57" fill="#161215"/>
  <path d="m266.4 566.1c4.037 4.123 10.55 3.397 14.54 0.5664 1.199-0.8672 0.043-2.879-1.168-2-4.166 2.422-8.527 3.319-11.73-0.2031-0.9961-1.121-2.629 0.5234-1.641 1.637" fill="#1c181a"/>
  <path d="m287.4 566c4.036 4.126 10.55 3.394 14.54 0.5664 1.195-0.8672 0.043-2.883-1.172-2-4.164 2.422-8.535 3.32-11.73-0.207-0.9922-1.117-2.625 0.5273-1.637 1.641" fill="#1c181a"/>
  <path d="m261.1 650.8c2.68-2.707 1.562-8.09 1.379-8.898-0.1797-0.8047-1.09-2.394-0.5469-4.293 1.508-5.539-3.699-6.121-3.977-6.141-0.2852-0.0156-5.598 0.6016-4.09 6.141 0.5469 1.898-0.3633 3.488-0.5469 4.293-0.1836 0.8086-1.301 6.191 1.379 8.898 1.195 0 3.066-0.0273 3.066-0.0273 1.133 3e-3 2.264 0.0264 3.336 0.0273z" fill="#e680c0"/>
  <path d="m260.6 635.6c0 1.492-1.203 2.695-2.695 2.695-1.484 0-2.691-1.203-2.691-2.695 0-1.484 1.207-2.691 2.691-2.691 1.492 0 2.695 1.207 2.695 2.691" fill="#1c181a"/>
  <path d="m258.5 628.8c1.469-1.477 0.8555-4.43 0.7539-4.871-0.0977-0.4414-0.5977-1.312-0.2969-2.352 0.8242-3.035-2.027-3.352-2.18-3.363-0.1562-0.0117-3.066 0.3281-2.242 3.363 0.3008 1.039-0.1992 1.91-0.2969 2.352-0.1016 0.4414-0.7109 3.394 0.7539 4.871 1.161-0.015 2.444-7e-3 3.508 0z" fill="#faad1a"/>
  <path d="m258.3 620.5c0 0.8125-0.6602 1.473-1.477 1.473-0.8125 0-1.477-0.6602-1.477-1.473 0-0.8164 0.6641-1.48 1.477-1.48 0.8164 0 1.477 0.6641 1.477 1.48" fill="#1c181a"/>
  <path d="m258.8 614.1c1.859-1.879 1.086-5.613 0.957-6.172-0.1289-0.5586-0.7578-1.66-0.3789-2.977 1.047-3.844-2.562-4.246-2.762-4.258-0.1914-0.0117-3.879 0.4141-2.836 4.258 0.3789 1.316-0.25 2.418-0.375 2.977-0.1289 0.5586-0.9023 4.293 0.9531 6.172 1.469-0.0255 3.094-0.0114 4.441 0z" fill="#666c4c"/>
  <path d="m258.5 603.6c0 1.035-0.8359 1.871-1.863 1.871-1.031 0-1.867-0.8359-1.867-1.871 0-1.027 0.8359-1.863 1.867-1.863 1.027 0 1.863 0.8359 1.863 1.863" fill="#1c181a"/>
  <path d="m256.7 565.2c1.238-1.246 0.7226-3.727 0.6367-4.098-0.082-0.375-0.5039-1.106-0.25-1.98 0.6953-2.551-1.707-2.82-1.836-2.828-0.1289-8e-3 -2.578 0.2773-1.883 2.828 0.25 0.875-0.168 1.606-0.2539 1.98-0.082 0.3711-0.5977 2.852 0.6367 4.098 1.026-0.0136 1.94-8e-3 2.949 0z" fill="#faad1a"/>
  <path d="m256.5 558.2c0 0.6875-0.5547 1.242-1.238 1.242-0.6836 0-1.238-0.5547-1.238-1.242 0-0.6836 0.5547-1.238 1.238-1.238 0.6836 0 1.238 0.5547 1.238 1.238" fill="#1c181a"/>
  <path d="m321.1 559.7c1.148-1.156 0.668-3.465 0.5938-3.812-0.082-0.3438-0.4688-1.027-0.2383-1.84 0.6484-2.379-1.582-2.625-1.703-2.633-0.1211-8e-3 -2.402 0.2539-1.754 2.633 0.2344 0.8125-0.1562 1.496-0.2344 1.84-0.0781 0.3476-0.5586 2.656 0.5898 3.812 0.9556-9e-3 1.806-5e-3 2.746 0z" fill="#5280c1"/>
  <path d="m320.9 553.2c0 0.6367-0.5195 1.152-1.152 1.152-0.6406 0-1.156-0.5156-1.156-1.152s0.5156-1.156 1.156-1.156c0.6328 0 1.152 0.5195 1.152 1.156" fill="#1c181a"/>
  <path d="m311.1 586.9c-1.812 0-3.277 1.469-3.277 3.281 0 1.809 1.465 3.277 3.277 3.277s3.277-1.469 3.277-3.277c0-1.812-1.465-3.281-3.277-3.281m-0.2578 21.77s-2.281 0.0312-3.738 0.0312c-3.262-3.293-1.902-9.852-1.68-10.84 0.2226-0.9844 1.332-2.914 0.6641-5.227-1.836-6.75 4.641-7.5 4.984-7.48 0.3398 0.0195 6.684 0.7305 4.848 7.48-0.668 2.312 0.4414 4.242 0.6641 5.227 0.2227 0.9844 1.586 7.543-1.68 10.84-1.457 0-3.738-0.0312-3.738-0.0312z" fill="#ca642c"/>
  <path d="m270.4 630.4c2.879-2.906 1.676-8.691 1.48-9.559-0.1953-0.8633-1.172-2.566-0.5859-4.609 1.621-5.949-3.973-6.574-4.273-6.594-0.3047-0.0156-6.012 0.6445-4.394 6.594 0.5898 2.043-0.3867 3.746-0.582 4.609-0.1992 0.8672-1.398 6.652 1.48 9.559 2.274-0.0466 4.791-3e-3 6.875 0z" fill="#5e3f90"/>
  <path d="m269.9 614.1c0 1.598-1.293 2.891-2.891 2.891s-2.891-1.293-2.891-2.891c0-1.598 1.293-2.891 2.891-2.891 1.598 0 2.891 1.293 2.891 2.891" fill="#1c181a"/>
  <path d="m270 606.4c1.039-1.051 0.6055-3.141 0.5352-3.453-0.0703-0.3125-0.4258-0.9297-0.2109-1.664 0.5859-2.152-1.438-2.375-1.547-2.383-0.1094-8e-3 -2.172 0.2305-1.586 2.383 0.2148 0.7344-0.1406 1.352-0.2109 1.664-0.0703 0.3125-0.5039 2.402 0.5352 3.453 0.8642-0.0133 1.634-8e-3 2.484 0z" fill="#f35857"/>
  <path d="m269.8 600.5c0 0.5742-0.4688 1.043-1.043 1.043-0.5781 0-1.047-0.4688-1.047-1.043 0-0.5781 0.4688-1.047 1.047-1.047 0.5742 0 1.043 0.4688 1.043 1.047" fill="#1c181a"/>
  <path d="m260.4 667c1.809-1.828 1.055-5.457 0.9336-6-0.1211-0.5469-0.7383-1.613-0.3672-2.894 1.016-3.73-2.496-4.125-2.684-4.137-0.1914-0.0117-3.773 0.4062-2.758 4.137 0.3711 1.281-0.2461 2.348-0.3672 2.894-0.125 0.543-0.8789 4.172 0.9297 6 0.8086 0 2.07-0.0195 2.07-0.0195 0.7611 5e-3 1.521 0.0153 2.242 0.0195z" fill="#55c27a"/>
  <path d="m260.2 656.8c0 1-0.8125 1.812-1.812 1.812-1.004 0-1.816-0.8125-1.816-1.812s0.8125-1.812 1.816-1.812c1 0 1.812 0.8125 1.812 1.812" fill="#1c181a"/>
  <path d="m260.4 697.1c3.559-3.59 2.074-10.74 1.832-11.8-0.2422-1.07-1.453-3.176-0.7266-5.699 2.004-7.356-4.906-8.121-5.281-8.148-0.375-0.0234-7.43 0.793-5.426 8.148 0.7266 2.523-0.4844 4.629-0.7266 5.699-0.2383 1.066-1.727 8.215 1.832 11.8 2.811-0.053 5.92-3e-3 8.496 0z" fill="#666c4c"/>
  <path d="m259.8 677c0 1.973-1.598 3.574-3.57 3.574s-3.574-1.602-3.574-3.574 1.602-3.574 3.574-3.574c1.973 0 3.57 1.602 3.57 3.574" fill="#1c181a"/>
  <path d="m291.2 603.6s0.7266 8e-3 1.191 8e-3c1.039-1.051 0.6055-3.137 0.5352-3.453-0.0742-0.3086-0.4258-0.9258-0.2148-1.664 0.5859-2.148-1.434-2.375-1.543-2.383-0.1094-4e-3 -2.172 0.2344-1.586 2.383 0.2109 0.7383-0.1445 1.356-0.2109 1.664-0.0742 0.3164-0.5078 2.402 0.5352 3.453 0.4609 0 1.188-8e-3 1.188-8e-3z" fill="#55c27a"/>
  <path d="m292.2 597.7c0 0.5781-0.4688 1.043-1.047 1.043-0.5742 0-1.043-0.4648-1.043-1.043 0-0.5781 0.4688-1.043 1.043-1.043 0.5781 0 1.047 0.4648 1.047 1.043" fill="#1c181a"/>
  <path d="m276.9 716.4c2.172-2.195 1.266-6.559 1.117-7.211-0.1445-0.6524-0.8828-1.941-0.4414-3.477 1.223-4.492-2.996-4.965-3.227-4.98-0.2305-0.0117-4.539 0.4883-3.316 4.98 0.4453 1.535-0.293 2.824-0.4414 3.477-0.1445 0.6523-1.055 5.016 1.121 7.211 1.716-0.028 3.615-9e-3 5.188 0z" fill="#5e3f90"/>
  <path d="m276.6 704.1c0 1.207-0.9766 2.184-2.184 2.184-1.203 0-2.176-0.9766-2.176-2.184s0.9727-2.188 2.176-2.188c1.207 0 2.184 0.9805 2.184 2.188" fill="#1c181a"/>
  <path d="m280.2 696.3c4.535-4.578 2.641-13.69 2.332-15.06-0.3086-1.367-1.848-4.055-0.9258-7.266 2.555-9.375-6.258-10.36-6.734-10.4-0.4766-0.0273-9.473 1.02-6.918 10.4 0.9219 3.211-0.6172 5.898-0.9258 7.266-0.3086 1.363-2.203 10.48 2.336 15.06 3.585-0.0733 7.55-5e-3 10.84 0z" fill="#5e3f90"/>
  <path d="m279.5 670.6c0 2.516-2.039 4.555-4.555 4.555-2.52 0-4.559-2.039-4.559-4.555 0-2.52 2.039-4.559 4.559-4.559 2.516 0 4.555 2.039 4.555 4.559" fill="#1c181a"/>
  <path d="m270 661.9c1.594-1.606 0.9258-4.801 0.8203-5.277-0.1094-0.4805-0.6523-1.418-0.3242-2.547 0.8945-3.285-2.195-3.633-2.363-3.644-0.1641-8e-3 -3.316 0.3594-2.422 3.644 0.3242 1.129-0.2188 2.066-0.3242 2.547-0.1094 0.4766-0.7734 3.672 0.8164 5.277 1.256-0.0201 2.646-0.01 3.797 0z" fill="#faad1a"/>
  <path d="m269.7 652.9c0 0.8828-0.7148 1.598-1.598 1.598s-1.598-0.7148-1.598-1.598c0-0.8789 0.7148-1.598 1.598-1.598s1.598 0.7188 1.598 1.598" fill="#1c181a"/>
  <path d="m281 639.1c2.18-2.199 1.27-6.578 1.117-7.23-0.1445-0.6562-0.8828-1.945-0.4414-3.488 1.227-4.5-3.004-4.977-3.234-4.992-0.2266-0.0117-4.547 0.4922-3.32 4.992 0.4414 1.543-0.2969 2.832-0.4453 3.488-0.1484 0.6523-1.059 5.031 1.121 7.23 1.721-0.0335 3.626-0.0107 5.203 0z" fill="#ee2123"/>
  <path d="m280.7 626.8c0 1.207-0.9805 2.188-2.188 2.188s-2.188-0.9805-2.188-2.188c0-1.211 0.9805-2.188 2.188-2.188s2.188 0.9766 2.188 2.188" fill="#1c181a"/>
  <path d="m270.6 646.8c1.73-1.719 1.047-5.172 0.9336-5.691-0.1133-0.5156-0.6836-1.539-0.3242-2.754 1-3.543-2.336-3.945-2.516-3.957-0.1797-0.0156-3.59 0.3516-2.656 3.91 0.3359 1.219-0.2539 2.23-0.375 2.746-0.1211 0.5156-0.8711 3.961 0.832 5.711 1.358-0.0103 2.86 0.0175 4.105 0.0351z" fill="#5e3f90"/>
  <path d="m270.4 637c-8e-3 0.9531-0.7891 1.719-1.742 1.707-0.9531-8e-3 -1.719-0.7852-1.707-1.738 8e-3 -0.9531 0.7852-1.723 1.738-1.711 0.9531 8e-3 1.719 0.7852 1.711 1.742" fill="#1c181a"/>
  <path d="m295.5 683.9c3.035-3.066 1.77-9.164 1.562-10.08-0.207-0.9141-1.238-2.707-0.6172-4.859 1.707-6.277-4.191-6.934-4.508-6.953-0.3203-0.0195-6.34 0.6758-4.633 6.953 0.6172 2.152-0.4141 3.945-0.6172 4.859-0.207 0.9141-1.473 7.012 1.562 10.08 2.398-0.0465 5.052-3e-3 7.25 0z" fill="#55c27a"/>
  <path d="m295 666.7c0 1.684-1.363 3.051-3.051 3.051-1.684 0-3.047-1.367-3.047-3.051s1.363-3.051 3.047-3.051c1.688 0 3.051 1.367 3.051 3.051" fill="#1c181a"/>
  <path d="m288.3 715.6c1.356-1.367 0.793-4.094 0.6992-4.504-0.0937-0.4062-0.5547-1.211-0.2773-2.172 0.7617-2.801-1.871-3.098-2.012-3.106-0.1445-8e-3 -2.832 0.3047-2.07 3.106 0.2774 0.9609-0.1836 1.766-0.2773 2.172-0.0898 0.4102-0.6602 3.137 0.6992 4.504 1.071-0.0152 2.256-7e-3 3.238 0z" fill="#55c27a"/>
  <path d="m288.1 707.9c0 0.7539-0.6094 1.363-1.359 1.363-0.7539 0-1.363-0.6094-1.363-1.363s0.6094-1.363 1.363-1.363c0.75 0 1.359 0.6094 1.359 1.363" fill="#1c181a"/>
  <path d="m291.2 699.9c1.535-1.555 0.8945-4.637 0.793-5.098-0.1055-0.4609-0.6289-1.367-0.3164-2.457 0.8633-3.172-2.117-3.508-2.277-3.516-0.1602-0.0117-3.207 0.3438-2.344 3.516 0.3164 1.09-0.207 1.996-0.3125 2.457-0.1016 0.4609-0.7422 3.543 0.7891 5.098 1.276-0.019 2.411-9e-3 3.668 0z" fill="#e680c0"/>
  <path d="m291 691.2c0 0.8516-0.6914 1.543-1.543 1.543s-1.539-0.6914-1.539-1.543c0-0.8555 0.6875-1.547 1.539-1.547s1.543 0.6914 1.543 1.547" fill="#1c181a"/>
  <path d="m299.3 657.7c4.836-4.883 2.82-14.6 2.488-16.06-0.3281-1.457-1.969-4.32-0.9844-7.746 2.723-10-6.676-11.06-7.184-11.08-0.5078-0.0312-10.1 1.078-7.379 11.08 0.9883 3.426-0.6602 6.289-0.9844 7.746-0.332 1.453-2.352 11.18 2.488 16.06 3.823-0.0799 8.051-5e-3 11.55 0z" fill="#f35857"/>
  <path d="m298.5 630.2c0 2.684-2.176 4.859-4.859 4.859s-4.859-2.176-4.859-4.859 2.176-4.859 4.859-4.859 4.859 2.176 4.859 4.859" fill="#1c181a"/>
  <path d="m281.1 660.7c1.352-1.367 0.7891-4.094 0.6953-4.5-0.0937-0.4102-0.5508-1.211-0.2734-2.172 0.7617-2.805-1.875-3.102-2.016-3.109-0.1445-8e-3 -2.832 0.3047-2.07 3.109 0.2773 0.9609-0.1836 1.762-0.2773 2.172-0.0937 0.4062-0.6562 3.133 0.6992 4.5 1.128-0.0137 2.134-8e-3 3.242 0z" fill="#5280c1"/>
  <path d="m280.9 653c0 0.7539-0.6094 1.363-1.363 1.363-0.75 0-1.359-0.6094-1.359-1.363 0-0.7539 0.6094-1.363 1.359-1.363 0.7539 0 1.363 0.6094 1.363 1.363" fill="#1c181a"/>
  <path d="m312 677c3.266-3.293 1.902-9.852 1.68-10.84-0.2188-0.9805-1.332-2.918-0.6641-5.227 1.836-6.754-4.508-7.457-4.848-7.48-0.3438-0.0195-6.82 0.7266-4.98 7.48 0.668 2.309-0.4453 4.246-0.6641 5.227-0.2266 0.9844-1.586 7.543 1.68 10.84 2.579-0.0532 5.433-3e-3 7.797 0z" fill="#e680c0"/>
  <path d="m311.5 658.5c0 1.809-1.465 3.277-3.273 3.277-1.812 0-3.281-1.469-3.281-3.277 0-1.812 1.469-3.281 3.281-3.281 1.809 0 3.273 1.469 3.273 3.281" fill="#1c181a"/>
  <path d="m321.1 680.1c1.535-1.551 0.8945-4.637 0.7891-5.098s-0.625-1.371-0.3125-2.457c0.8633-3.176-2.117-3.508-2.281-3.516-0.1602-0.0117-3.203 0.3398-2.34 3.516 0.3125 1.086-0.207 1.996-0.3125 2.457-0.1055 0.4609-0.7461 3.547 0.7891 5.098 1.213-0.0202 2.555-9e-3 3.668 0z" fill="#666c4c"/>
  <path d="m320.8 671.4c0 0.8476-0.6875 1.543-1.539 1.543-0.8516 0-1.543-0.6953-1.543-1.543 0-0.8555 0.6914-1.543 1.543-1.543 0.8516 0 1.539 0.6875 1.539 1.543" fill="#1c181a"/>
  <path d="m311.1 627.7c2.184-2.199 1.273-6.586 1.125-7.242-0.1484-0.6602-0.8906-1.949-0.4453-3.496 1.227-4.516-3.016-4.988-3.242-5.004-0.2305-0.0117-4.559 0.4883-3.332 5.004 0.4453 1.547-0.2969 2.836-0.4453 3.496-0.1445 0.6562-1.059 5.043 1.125 7.242 1.814-0.0315 3.428-1e-3 5.215 0z" fill="#55c27a"/>
  <path d="m310.7 615.3c0 1.211-0.9805 2.191-2.191 2.191s-2.195-0.9805-2.195-2.191c0-1.215 0.9844-2.195 2.195-2.195s2.191 0.9805 2.191 2.195" fill="#1c181a"/>
  <path d="m294.9 619.8c1.875-1.891 1.094-5.656 0.9648-6.223-0.1289-0.5625-0.7617-1.672-0.3828-2.996 1.059-3.875-2.586-4.285-2.781-4.297-0.1953-0.0117-3.914 0.4219-2.859 4.297 0.3828 1.324-0.2539 2.434-0.3789 2.996-0.1289 0.5664-0.9102 4.332 0.9648 6.223 1.556-0.0258 2.941-9e-3 4.473 0z" fill="#666c4c"/>
  <path d="m294.6 609.2c0 1.039-0.8398 1.879-1.883 1.879-1.039 0-1.883-0.8398-1.883-1.879s0.8438-1.883 1.883-1.883c1.043 0 1.883 0.8438 1.883 1.883" fill="#1c181a"/>
  <path d="m300.2 613.1s0.7266 0.0117 1.188 0.0117c1.039-1.051 0.6055-3.141 0.5352-3.453-0.0703-0.3125-0.4219-0.9297-0.2109-1.664 0.5859-2.152-1.438-2.375-1.547-2.383-0.1055-8e-3 -2.168 0.2305-1.582 2.383 0.2109 0.7344-0.1445 1.352-0.2148 1.664-0.0703 0.3125-0.5039 2.402 0.5352 3.453 0.4648 0 1.191-0.0117 1.191-0.0117z" fill="#faad1a"/>
  <path d="m301.2 607.2c0 0.5742-0.4688 1.043-1.047 1.043-0.5742 0-1.043-0.4688-1.043-1.043 0-0.5781 0.4688-1.047 1.043-1.047 0.5781 0 1.047 0.4688 1.047 1.047" fill="#1c181a"/>
  <path d="m301.3 621.6c0.7773-0.7891 0.4531-2.359 0.3984-2.59-0.0508-0.2344-0.3164-0.6992-0.1562-1.25 0.4375-1.613-1.078-1.781-1.16-1.789-0.082-4e-3 -1.629 0.1758-1.191 1.789 0.1602 0.5508-0.1055 1.016-0.1562 1.25-0.0547 0.2305-0.3789 1.801 0.3984 2.59 0.6496-0.0131 1.227-8e-3 1.867 0z" fill="#faad1a"/>
  <path d="m301.2 617.2c0 0.4336-0.3516 0.7812-0.7852 0.7812s-0.7812-0.3477-0.7812-0.7812c0-0.4336 0.3477-0.7852 0.7812-0.7852s0.7852 0.3516 0.7852 0.7852" fill="#1c181a"/>
  <path d="m242.1 672s3.984 0.0547 6.531 0.0547c5.703-5.758 3.324-17.22 2.938-18.93-0.3906-1.719-2.324-5.098-1.164-9.137 3.211-11.79-7.871-13.03-8.469-13.07-0.1133-8e-3 -0.5938 0.0312-1.277 0.1758-0.1875 0.8359-0.4219 1.926-0.6758 3.234 0.6211-0.2305 1.297-0.3594 2-0.3594 3.164 0 5.73 2.566 5.73 5.73s-2.566 5.73-5.73 5.73c-1.371 0-2.629-0.4844-3.613-1.289-1.031 7.668-1.828 17.55-1.262 27.91 2.191-0.0156 4.43-0.0469 4.43-0.0469z" fill="#ee2123"/>
  <path d="m249.7 629.1c2.68-2.707 1.562-8.09 1.379-8.898-0.1836-0.8047-1.09-2.391-0.5469-4.289 1.297-4.766-2.367-5.863-3.598-6.09-0.0859 0.4688-0.1797 0.9297-0.2734 1.387 1.449 0.0469 2.606 1.23 2.606 2.688 0 1.488-1.203 2.691-2.691 2.691-0.4219 0-0.8164-0.0977-1.176-0.2695-0.8711 3.07-1.852 5.856-2.707 8.289-0.2656 0.7422-0.5156 1.457-0.7461 2.137 0.2695 0.875 0.6953 1.695 1.352 2.356" fill="#e680c0"/>
  <path d="m251.3 595.3c-0.2148-0.957-1.293-2.84-0.6445-5.094 1.789-6.574-4.391-7.262-4.723-7.285-0.0742-4e-3 -0.4336 0.0274-0.9297 0.1484 0.1133 0.5352 0.2383 1.07 0.3672 1.613 0.1914-0.0391 0.3867-0.0586 0.5898-0.0586 1.766 0 3.195 1.43 3.195 3.195 0 1.434-0.9492 2.648-2.25 3.051 1.086 5.301 1.129 10.32 0.6016 14.97 0.6953 8e-3 1.512 0.0156 2.16 0.0156 3.18-3.211 1.852-9.598 1.633-10.56" fill="#5280c1"/>
  <path d="m245.6 579.8s2.609 0.0352 4.277 0.0352c3.734-3.773 2.176-11.28 1.922-12.4s-1.523-3.336-0.7617-5.984c1.582-5.816-2.141-7.711-4.246-8.301-0.2578 0.5859-0.5 1.184-0.7266 1.785 1.812 0.2617 3.211 1.82 3.211 3.711 0 2.07-1.68 3.754-3.754 3.754-0.4883 0-0.9531-0.0977-1.383-0.2695-0.8945 5.356-0.8008 11.26 0.293 17.68 0.4805-4e-3 0.7969-8e-3 0.7969-8e-3z" fill="#55c27a"/>
  <path d="m306.5 550.7c1.602-3.84 0.5508-8.891 0.3477-9.789-0.2266-0.9922-1.258-2.863-0.9024-5.129-0.7773-0.4453-1.551-0.8594-2.324-1.246-0.6719 0.875-1.727 1.445-2.918 1.445-2.027 0-3.676-1.644-3.676-3.676 0-0.1797 0.0195-0.3555 0.043-0.5274-0.7461-0.2578-1.473-0.4961-2.176-0.707-0.2539 1.059-0.2422 2.367 0.1953 3.984 0.7461 2.59-0.4961 4.758-0.7461 5.856-0.043 0.1914-0.1211 0.5625-0.2031 1.062 4.891 1.715 9.16 4.77 12.36 8.727" fill="#f35857"/>
  <path d="m312.5 540.4c0.6836 0.5898 1.356 1.203 2.008 1.852-0.2148-1.344-1.465-1.742-2.008-1.852" fill="#666c4c"/>
  <path d="m313.7 542.6c0 0.8008-0.6484 1.449-1.445 1.449-0.8047 0-1.453-0.6484-1.453-1.449s0.6484-1.449 1.453-1.449c0.7969 0 1.445 0.6484 1.445 1.449m-3.66 1.086c0.293 1.02-0.1992 1.875-0.2969 2.309-0.0977 0.4336-0.6992 3.332 0.7422 4.789 1.141-0.0202 2.403-9e-3 3.449 0 1.441-1.457 0.8398-4.356 0.7383-4.789-0.0977-0.4336-0.5859-1.289-0.2891-2.309 0.1484-0.5625 0.1758-1.031 0.1133-1.418-0.6523-0.6484-1.324-1.262-2.012-1.852-0.1289-0.0234-0.2227-0.0352-0.2461-0.0352-0.1523-8e-3 -3.016 0.3203-2.199 3.305" fill="#666c4c"/>
  <path d="m317.8 569c0.6016 2.082-0.3984 3.824-0.6016 4.711-0.1992 0.8867-1.426 6.801 1.516 9.77 1.717-9e-3 3.328-0.0309 4.789-0.0156 1.25-5.633 1.789-10.9 1.621-15.76-0.3867 1.184-1.496 2.035-2.809 2.035-1.633 0-2.957-1.324-2.957-2.953 0-1.633 1.324-2.957 2.957-2.957 1.195 0 2.215 0.707 2.684 1.723-0.0664-0.8516-0.1602-1.691-0.2734-2.516-1.133-0.6484-2.301-0.7734-2.438-0.7812-0.3086-0.0195-6.144 0.6562-4.488 6.742" fill="#e680c0"/>
  <path d="m320 588.9c-0.5742 0-1.047-0.4688-1.047-1.047 0-0.5742 0.4727-1.043 1.047-1.043 0.5781 0 1.047 0.4688 1.047 1.043 0 0.5781-0.4688 1.047-1.047 1.047m1.531-0.2656c0.5898-2.148-1.434-2.375-1.539-2.379-0.1094-8e-3 -2.172 0.2305-1.59 2.379 0.2148 0.7383-0.1367 1.356-0.2109 1.668-0.0703 0.3125-0.5039 2.402 0.5352 3.449 0.4648 0 1.191-8e-3 1.191-8e-3h0.1016s0.6758 8e-3 1.141 8e-3c0.1562-1.117 0.3516-2.25 0.5977-3.394-4e-3 -0.0195-8e-3 -0.043-0.0117-0.0547-0.0703-0.3125-0.4219-0.9297-0.2148-1.668" fill="#faad1a"/>
  <path d="m309.9 703.3c-4.746 0-8.594-3.848-8.594-8.59 0-4.746 3.848-8.594 8.594-8.594 4.742 0 8.586 3.848 8.586 8.594 0 4.742-3.844 8.59-8.586 8.59m12.62-2.164c4.812-17.69-11.8-19.54-12.7-19.59-0.8984-0.0586-17.86 1.906-13.05 19.59 1.746 6.055-1.164 11.12-1.742 13.69-0.0781 0.3477-0.2109 0.9688-0.3633 1.789 6.121 0.0703 14.21 0.1445 20.56 0.1484 2.711-2.824 5-5.949 6.938-9.285-0.293-1.918-0.293-4.059 0.3633-6.344" fill="#faad1a"/>
  <path d="m238.2 678.1c0-1.488 1.203-2.691 2.691-2.691s2.691 1.203 2.691 2.691-1.203 2.691-2.691 2.691-2.691-1.203-2.691-2.691m5.816 15.2c2.68-2.703 1.562-8.09 1.379-8.894-0.1797-0.8086-1.094-2.394-0.5469-4.297 1.508-5.539-3.699-6.121-3.98-6.137-0.1758-0.0117-2.324 0.2266-3.539 1.766-0.4776 6.933 0.7 11.76 3.137 17.54 1.219-0.0115 2.486 0.0181 3.551 0.0195z" fill="#5e3f90"/>
  <path d="m260.2 579.9c-0.0156 0-0.0273 4e-3 -0.0391 4e-3 -2.074 0-3.754-1.68-3.754-3.754 0-1.25 0.6172-2.356 1.559-3.035-0.1289-0.6875-0.2344-1.379-0.3125-2.078-2.094 0.9102-4.551 3.051-3.223 7.922 0.7617 2.648-0.5078 4.856-0.7617 5.98-0.2539 1.125-1.812 8.633 1.922 12.4 2.953-0.06 6.22-4e-3 8.926 0 2.227-2.25 2.57-5.832 2.43-8.594-2.805-2.449-5.113-5.457-6.746-8.848" fill="#f35857"/>
  <path d="m267.2 547c-0.1016-1.367-0.3242-2.434-0.4023-2.777-0.2109-0.9414-1.273-2.793-0.6367-5.012 0.6094-2.238 0.2773-3.781-0.4258-4.844-0.5117 0.2539-1.031 0.5156-1.555 0.793 0.3164 0.4922 0.5039 1.074 0.5039 1.703 0 1.734-1.406 3.141-3.141 3.141-1.144 0-2.141-0.6133-2.691-1.523-0.6562 0.4766-1.309 0.9727-1.953 1.5 0.2422 1.871-0.6055 3.41-0.793 4.242-0.2148 0.9414-1.52 7.227 1.609 10.38 1.062 0 2.578-0.0156 3.242-0.0234 1.617-2.887 3.738-5.453 6.242-7.582" fill="#ca642c"/>
  <path d="m274.1 539.7c-1.156 0-2.094-0.9375-2.094-2.094s0.9375-2.098 2.094-2.098 2.094 0.9414 2.094 2.098-0.9375 2.094-2.094 2.094m3.078-0.5274c1.176-4.312-2.879-4.766-3.098-4.777-0.2148-0.0156-4.356 0.4648-3.18 4.777 0.4258 1.477-0.2852 2.711-0.4258 3.34-0.0625 0.2695-0.2539 1.188-0.293 2.32 2.18-1.41 4.57-2.52 7.109-3.277-0.2031-0.6406-0.3789-1.465-0.1133-2.383" fill="#e680c0"/>
  <path d="m290.5 541c0.6719-2.664 0.0469-5.664-0.0899-6.254-0.1797-0.8203-1.109-2.438-0.5547-4.367 0.0508-0.1914 0.0937-0.3711 0.1328-0.5547-0.6055-0.125-1.168-0.2344-1.684-0.3281-0.4375 0.9258-1.379 1.57-2.477 1.57-1.238 0-2.285-0.8203-2.625-1.949-0.4922 0.0586-1.086 0.1406-1.77 0.2539 0.043 0.3164 0.1133 0.6523 0.207 1.008 0.5586 1.93-0.3672 3.547-0.5547 4.367-0.1289 0.5742-0.7226 3.422-0.1406 6.027 1.348-0.2031 2.727-0.3086 4.129-0.3086 1.859 0 3.672 0.1836 5.426 0.5352" fill="#5e3f90"/>
  <path d="m311.9 554.8c1.137 0 2.059 0.9219 2.059 2.059s-0.9219 2.059-2.059 2.059c-0.2852 0-0.5625-0.0625-0.8125-0.168 1.027 2.887 1.594 5.992 1.594 9.227 0 0.168-8e-3 0.3359-8e-3 0.4961 0.4844 8e-3 1.125 0.0117 1.617 0.0117 2.047-2.066 1.191-6.188 1.055-6.805-0.1406-0.6172-0.8359-1.828-0.418-3.281 1.152-4.238-2.832-4.684-3.047-4.695-0.125-8e-3 -1.586 0.1523-2.531 1.148 0.2266 0.4102 0.4336 0.8281 0.6367 1.25 0.3047-0.7617 1.047-1.301 1.914-1.301" fill="#5e3f90"/>
  <path d="m314.2 574.8c0.6328-2.336-0.9414-3.035-1.73-3.234-0.043 0.3203-0.0724 0.5537-0.1232 0.8701 0.5243 0.0831 1.053 0.5016 1.17 1.278-0.0531 1.122-0.8194 1.43-1.754 1.414-0.5234 1.945-1.25 3.805-2.164 5.555 0.1484 0.4492 0.3672 0.8711 0.707 1.211 1.139-0.0151 2.399-7e-3 3.441 0 1.445-1.457 0.8438-4.352 0.7461-4.789-0.0977-0.4336-0.5898-1.285-0.293-2.305" fill="#55c27a"/>
  <path d="m301.4 592.7c0 0.9648-0.7773 1.742-1.742 1.742-0.9609 0-1.742-0.7773-1.742-1.742 0-0.125 0.0156-0.25 0.0391-0.3711-0.3711 0.1992-0.75 0.3906-1.129 0.5703 8e-3 0.332 0.0586 0.6953 0.1719 1.106 0.3516 1.23-0.2383 2.258-0.3555 2.777-0.1172 0.5234-0.8438 4.008 0.8945 5.762 0.7734 0 1.984-0.0195 1.984-0.0195h0.1719s1.215 0.0195 1.988 0.0195c1.734-1.754 1.012-5.238 0.8906-5.762-0.1172-0.5195-0.707-1.547-0.3516-2.777 0.5664-2.078-0.3281-3.078-1.219-3.555-0.2774 0.1992-0.5625 0.3906-0.8516 0.582 0.7227 0.2109 1.25 0.8789 1.25 1.668" fill="#faad1a"/>
  <path d="m283.8 599.4c0 1.973-1.598 3.57-3.57 3.57-1.977 0-3.574-1.598-3.574-3.57 0-1.973 1.598-3.574 3.574-3.574 1.973 0 3.57 1.602 3.57 3.574m-9.027 2.672c0.7226 2.52-0.4883 4.625-0.7266 5.695-0.2422 1.07-1.727 8.219 1.828 11.81 2.956-0.0504 5.584-2e-3 8.496 0 3.559-3.59 2.078-10.74 1.832-11.81-0.2422-1.07-1.449-3.176-0.7226-5.695 0.918-3.371-0.0391-5.356-1.379-6.523-2.188-0.0781-4.312-0.418-6.348-0.9805-1.973 0.8867-4.227 2.934-2.98 7.504" fill="#e680c0"/>
  <path d="m245.4 701.2c-1.008 0-1.824-0.8164-1.824-1.824 0-1.004 0.8164-1.828 1.824-1.828s1.824 0.8242 1.824 1.828c0 1.008-0.8164 1.824-1.824 1.824m3.051 2.445c-0.1211-0.5469-0.7383-1.621-0.3711-2.906 1.023-3.754-2.504-4.148-2.695-4.16-0.1562-8e-3 -2.606 0.2695-2.918 2.449 1.406 3.648 3.133 7.16 5.238 10.44 1.574-1.891 0.8672-5.297 0.7461-5.824" fill="#f35857"/>
  <path d="m260 712.4c-2.629 0-4.758-2.129-4.758-4.754 0-2.629 2.129-4.758 4.758-4.758 2.625 0 4.758 2.129 4.758 4.758 0 2.625-2.133 4.754-4.758 4.754m6.992-1.195c2.664-9.793-6.539-10.82-7.035-10.85-0.4961-0.0273-9.891 1.059-7.223 10.85 0.5156 1.797 0.293 3.438-0.0742 4.789 0.2383 0.2617 0.4805 0.5195 0.7227 0.7734 4.219-4e-3 9.215-0.0351 13.89-0.0781-0.4727-1.473-0.8867-3.371-0.2773-5.484" fill="#e680c0"/>
  <path d="m328.4 666.9c0-1.93 1.394-3.527 3.23-3.859-8e-3 -0.6953-0.0234-1.383-0.043-2.066-1.957 0.3672-7.102 2.094-5.258 8.867 0.7969 2.766-0.5352 5.078-0.7969 6.254-0.2656 1.18-1.898 9.027 2.012 12.97 0.4844 0 1.047 0 1.606-8e-3 1.391-6.059 2.106-12.28 2.367-18.32-1.777-0.3711-3.117-1.949-3.117-3.844" fill="#5e3f90"/>
  <path d="m316.4 616.7c0.6328 2.191-0.418 4.023-0.625 4.953-0.2148 0.9297-1.504 7.144 1.59 10.27 2.569-0.0441 4.857-2e-3 7.387 0 1.316-1.324 1.836-3.211 1.988-5.012-0.2578-0.75-0.5312-1.535-0.8281-2.363-0.8242-2.34-1.758-5.004-2.606-7.938-0.5547 0.543-1.32 0.875-2.16 0.875-1.715 0-3.106-1.391-3.106-3.106 0-1.715 1.391-3.106 3.106-3.106 0.2969 0 0.582 0.043 0.8477 0.1211-0.1172-0.5586-0.2266-1.121-0.332-1.695-0.2891-0.0586-0.4883-0.0781-0.5391-0.082-0.3242-0.0195-6.461 0.6914-4.723 7.086" fill="#666c4c"/>
  <path d="m310.3 644.3c1.891-1.91 1.098-5.711 0.9726-6.281-0.1289-0.5664-0.7695-1.691-0.3867-3.031 1.062-3.91-2.613-4.32-2.812-4.336-0.1992-0.0117-3.949 0.4258-2.883 4.336 0.3828 1.34-0.2578 2.465-0.3867 3.031-0.1289 0.5703-0.918 4.371 0.9727 6.281 1.574-0.0259 2.976-9e-3 4.523 0z" fill="#faad1a"/>
  <path d="m310 633.5c0 1.051-0.8516 1.902-1.898 1.902-1.051 0-1.902-0.8516-1.902-1.902 0-1.047 0.8516-1.902 1.902-1.902 1.047 0 1.898 0.8555 1.898 1.902" fill="#1c181a"/>
  <path d="m323 665.4c2.34-2.363 1.359-7.066 1.203-7.77-0.1602-0.7031-0.9531-2.086-0.4766-3.746 1.316-4.836-3.23-5.344-3.477-5.359-0.2461-0.0117-4.887 0.5234-3.566 5.359 0.4766 1.66-0.3203 3.043-0.4805 3.746-0.1562 0.7031-1.133 5.406 1.207 7.77 1.849-0.0332 3.895-2e-3 5.59 0z" fill="#f35857"/>
  <path d="m322.7 652.1c0 1.297-1.051 2.348-2.352 2.348-1.297 0-2.348-1.051-2.348-2.348s1.051-2.348 2.348-2.348c1.301 0 2.352 1.051 2.352 2.348" fill="#1c181a"/>
  <path d="m319.5 646.1c1.742-1.695 1.098-5.148 0.9883-5.664-0.1055-0.5156-0.668-1.543-0.2969-2.746 1.031-3.52-2.285-3.953-2.465-3.969-0.1797-0.0156-3.582 0.3125-2.688 3.871 0.3242 1.219-0.2734 2.219-0.3984 2.73-0.1289 0.5156-0.9102 3.938 0.7695 5.695 1.423 0.0139 2.69 0.0451 4.09 0.0821z" fill="#ee2123"/>
  <path d="m319.4 636.4c-0.0195 0.9531-0.8008 1.707-1.75 1.688-0.9531-0.0156-1.707-0.8008-1.688-1.754 0.0156-0.9492 0.8008-1.703 1.75-1.68 0.9492 0.0156 1.707 0.8008 1.688 1.746" fill="#1c181a"/>
  <path d="m278.3 648.5c1.039-1.047 0.6055-3.133 0.5352-3.449-0.0742-0.3125-0.4258-0.9258-0.2109-1.66 0.582-2.156-1.438-2.379-1.547-2.387-0.1094-8e-3 -2.172 0.2305-1.586 2.387 0.2148 0.7344-0.1406 1.348-0.2109 1.66-0.0742 0.3164-0.5078 2.402 0.5312 3.449 0.8657-4e-3 1.637-3e-3 2.488 0z" fill="#666c4c"/>
  <path d="m278.1 642.6c0 0.5781-0.4648 1.047-1.043 1.047-0.5742 0-1.043-0.4688-1.043-1.047 0-0.5742 0.4688-1.043 1.043-1.043 0.5781 0 1.043 0.4688 1.043 1.043" fill="#1c181a"/>
  <path d="m327.9 647c1.356-1.367 0.7891-4.09 0.6953-4.5-0.0898-0.4062-0.5508-1.211-0.2734-2.172 0.7617-2.805-1.875-3.098-2.016-3.109-0.1445-8e-3 -2.832 0.3047-2.07 3.109 0.2773 0.9609-0.1836 1.766-0.2773 2.172-0.0899 0.4102-0.6602 3.133 0.6992 4.5 1.128-0.0136 2.132-8e-3 3.242 0z" fill="#55c27a"/>
  <path d="m327.7 639.3c0 0.75-0.6094 1.363-1.363 1.363s-1.363-0.6133-1.363-1.363c0-0.7539 0.6094-1.363 1.363-1.363s1.363 0.6094 1.363 1.363" fill="#1c181a"/>
  <path d="m307.7 651.7s0.5195 8e-3 0.8516 8e-3c0.7461-0.7539 0.4336-2.246 0.3867-2.473-0.0547-0.2226-0.3047-0.6602-0.1562-1.191 0.4219-1.535-1.023-1.699-1.102-1.703-0.0781-4e-3 -1.555 0.168-1.137 1.703 0.1523 0.5312-0.1016 0.9688-0.1524 1.191-0.0508 0.2266-0.3594 1.719 0.3828 2.473 0.332 0 0.8555-8e-3 0.8555-8e-3z" fill="#55c27a"/>
  <path d="m308.4 647.5c0 0.4141-0.3359 0.75-0.75 0.75-0.4102 0-0.7461-0.3359-0.7461-0.75 0-0.4102 0.3359-0.7461 0.7461-0.7461 0.4141 0 0.75 0.3359 0.75 0.7461" fill="#1c181a"/>
 </g>
</svg>
