<?xml version="1.0" encoding="UTF-8"?>
<svg width="121.74" height="215.56" version="1.1" xmlns="http://www.w3.org/2000/svg" xmlns:cc="http://creativecommons.org/ns#" xmlns:dc="http://purl.org/dc/elements/1.1/" xmlns:rdf="http://www.w3.org/1999/02/22-rdf-syntax-ns#">
 <metadata>
  <rdf:RDF>
   <cc:Work rdf:about="">
    <dc:format>image/svg+xml</dc:format>
    <dc:type rdf:resource="http://purl.org/dc/dcmitype/StillImage"/>
    <dc:title/>
   </cc:Work>
  </rdf:RDF>
 </metadata>
 <g transform="translate(-222.11 -514.02)">
  <title>background</title>
  <rect id="canvas_background" x="-1" y="-1" width="582" height="402" fill="none"/>
 </g>
 <g transform="translate(-222.11 -514.02)">
  <title>Layer 1</title>
  <g>
   <path d="m285.62 718.33s18.551 0.25781 30.402 0.25781c26.539-26.797 15.461-80.133 13.656-88.121-1.8008-7.9883-10.82-23.703-5.4102-42.516 14.945-54.879-37.59-60.254-39.5-59.914-1.3086-0.4375-55.359 5.0352-40.418 59.914 5.4141 18.812-3.6055 34.527-5.4102 42.516-1.8047 7.9883-12.883 61.324 13.656 88.121 11.852 0 30.406-0.25781 30.406-0.25781z" fill="#1c181a"/>
   <path d="m285.62 718.33s18.551 0.25781 30.402 0.25781c26.539-26.797 15.461-80.133 13.656-88.121-1.8008-7.9883-10.82-23.703-5.4102-42.516 14.945-54.879-36.402-60.609-39.73-60.07-2.207-0.50391-55.129 5.1914-40.188 60.07 5.4141 18.812-3.6055 34.527-5.4102 42.516-1.8047 7.9883-12.883 61.324 13.656 88.121 11.852 0 30.406-0.25781 30.406-0.25781z" fill="#161215"/>
   <path d="m311.98 568.01c0 14.727-11.938 26.668-26.668 26.668-14.727 0-26.664-11.941-26.664-26.668 0-14.727 11.938-26.668 26.664-26.668 14.73 0 26.668 11.941 26.668 26.668" fill="#fff"/>
   <path d="m285.08 542.25c-14.207 0-25.766 11.559-25.766 25.766 0 14.207 11.559 25.766 25.766 25.766 14.207 0 25.766-11.559 25.766-25.766 0-14.207-11.559-25.766-25.766-25.766m0 53.332c-15.203 0-27.566-12.363-27.566-27.566 0-15.203 12.363-27.566 27.566-27.566 15.199 0 27.57 12.363 27.57 27.566 0 15.203-12.371 27.566-27.57 27.566" fill="#161215"/>
   <path d="m266.35 566.13c1.0977 1.2383 2.6524 2.1016 4.1836 2.668 3.5859 1.3242 7.4023 0.0547 10.359-2.1016 1.1992-0.86719 0.043-2.8789-1.168-2-2.5664 1.8672-5.4688 2.9141-8.5742 1.8633-1.1641-0.39062-2.3398-1.1445-3.1602-2.0664-0.9961-1.1211-2.6289 0.52343-1.6406 1.6367" fill="#1c181a"/>
   <path d="m287.35 566c1.0977 1.2383 2.6484 2.1016 4.1797 2.668 3.5859 1.3242 7.4023 0.0547 10.363-2.1016 1.1953-0.86719 0.043-2.8828-1.1719-2-2.5664 1.8672-5.4648 2.9141-8.5742 1.8633-1.1602-0.39453-2.3398-1.1445-3.1602-2.0703-0.99219-1.1172-2.625 0.52734-1.6367 1.6406" fill="#1c181a"/>
   <path d="m257.99 650.8s1.875 0.0273 3.0703 0.0273c2.6797-2.707 1.5625-8.0898 1.3789-8.8984-0.17969-0.80468-1.0898-2.3945-0.54688-4.293 1.5078-5.5391-3.6992-6.1211-3.9766-6.1406-0.28516-0.0156-5.5977 0.60156-4.0898 6.1406 0.54688 1.8984-0.36328 3.4883-0.54687 4.293-0.18359 0.8086-1.3008 6.1914 1.3789 8.8984 1.1953 0 3.0664-0.0273 3.0664-0.0273z" fill="#e680c0"/>
   <path d="m260.63 635.62c0 1.4922-1.2031 2.6953-2.6953 2.6953-1.4844 0-2.6914-1.2031-2.6914-2.6953 0-1.4844 1.207-2.6914 2.6914-2.6914 1.4922 0 2.6953 1.207 2.6953 2.6914" fill="#1c181a"/>
   <path d="m256.85 628.79s1.0234 0.0117 1.6797 0.0117c1.4688-1.4766 0.85547-4.4297 0.75391-4.8711-0.0977-0.44141-0.59766-1.3125-0.29688-2.3516 0.82422-3.0352-2.0273-3.3516-2.1797-3.3633-0.15625-0.0117-3.0664 0.32813-2.2422 3.3633 0.30078 1.0391-0.19922 1.9102-0.29688 2.3516-0.10156 0.4414-0.71093 3.3945 0.75391 4.8711 0.65625 0 1.6797-0.0117 1.6797-0.0117z" fill="#faad1a"/>
   <path d="m258.29 620.48c0 0.8125-0.66016 1.4727-1.4766 1.4727-0.8125 0-1.4766-0.66016-1.4766-1.4727 0-0.8164 0.66407-1.4805 1.4766-1.4805 0.8164 0 1.4766 0.66407 1.4766 1.4805" fill="#1c181a"/>
   <path d="m256.69 614.11s1.2969 0.0195 2.1289 0.0195c1.8594-1.8789 1.0859-5.6133 0.95703-6.1719-0.1289-0.5586-0.75781-1.6602-0.3789-2.9766 1.0469-3.8438-2.5625-4.2461-2.7617-4.2578-0.19141-0.0117-3.8789 0.41406-2.8359 4.2578 0.37891 1.3164-0.25 2.418-0.375 2.9766-0.12891 0.55859-0.90234 4.293 0.95313 6.1719 0.83203 0 2.1289-0.0195 2.1289-0.0195z" fill="#666c4c"/>
   <path d="m258.52 603.58c0 1.0352-0.83594 1.8711-1.8633 1.8711-1.0312 0-1.8672-0.83594-1.8672-1.8711 0-1.0274 0.83594-1.8633 1.8672-1.8633 1.0273 0 1.8633 0.83593 1.8633 1.8633" fill="#1c181a"/>
   <path d="m255.25 565.16s0.85937 0.0117 1.4102 0.0117c1.2383-1.2461 0.72265-3.7266 0.63671-4.0977-0.082-0.375-0.5039-1.1055-0.25-1.9805 0.69532-2.5508-1.707-2.8203-1.8359-2.8281-0.12891-8e-3 -2.5781 0.27734-1.8828 2.8281 0.25 0.875-0.16796 1.6055-0.2539 1.9805-0.082 0.3711-0.59766 2.8516 0.63672 4.0977 0.55078 0 1.4141-0.0117 1.4141-0.0117z" fill="#faad1a"/>
   <path d="m256.46 558.17c0 0.6875-0.55469 1.2422-1.2383 1.2422-0.6836 0-1.2383-0.55469-1.2383-1.2422 0-0.6836 0.55469-1.2383 1.2383-1.2383 0.68359 0 1.2383 0.55468 1.2383 1.2383" fill="#1c181a"/>
   <path d="m319.81 559.73s0.80078 8e-3 1.3125 8e-3c1.1484-1.1562 0.66797-3.4648 0.59375-3.8125-0.082-0.34375-0.46875-1.0274-0.23828-1.8398 0.64843-2.3789-1.582-2.625-1.7031-2.6328-0.12109-8e-3 -2.4023 0.25391-1.7539 2.6328 0.23438 0.8125-0.15625 1.4961-0.23437 1.8398-0.0781 0.34765-0.55859 2.6562 0.58984 3.8125 0.51563 0 1.3164-8e-3 1.3164-8e-3z" fill="#5280c1"/>
   <path d="m320.94 553.23c0 0.63672-0.51953 1.1524-1.1523 1.1524-0.64063 0-1.1562-0.51563-1.1562-1.1524s0.51562-1.1562 1.1562-1.1562c0.63281 0 1.1523 0.51953 1.1523 1.1562" fill="#1c181a"/>
   <path d="m311.06 586.92c-1.8125 0-3.2773 1.4688-3.2773 3.2812 0 1.8086 1.4648 3.2774 3.2773 3.2774s3.2773-1.4688 3.2773-3.2774c0-1.8125-1.4648-3.2812-3.2773-3.2812m-0.25781 21.766s-2.2812 0.0312-3.7383 0.0312c-3.2617-3.293-1.9024-9.8516-1.6797-10.836 0.22265-0.98437 1.332-2.9141 0.66406-5.2266-1.8359-6.75 4.6406-7.5 4.9844-7.4805 0.33984 0.0195 6.6836 0.73047 4.8476 7.4805-0.66797 2.3125 0.44141 4.2422 0.66406 5.2266 0.22266 0.98438 1.5859 7.543-1.6797 10.836-1.457 0-3.7383-0.0312-3.7383-0.0312z" fill="#ca642c"/>
   <path d="m267.11 630.39s2.0117 0.0273 3.2969 0.0273c2.8789-2.9062 1.6758-8.6914 1.4805-9.5586-0.19531-0.86328-1.1719-2.5664-0.58594-4.6094 1.6211-5.9492-3.9726-6.5742-4.2734-6.5938-0.30469-0.0156-6.0117 0.64453-4.3945 6.5938 0.58984 2.043-0.38672 3.7461-0.58204 4.6094-0.19921 0.86719-1.3984 6.6523 1.4805 9.5586 1.2852 0 3.293-0.0273 3.293-0.0273z" fill="#5e3f90"/>
   <path d="m269.94 614.08c0 1.5976-1.293 2.8906-2.8906 2.8906-1.5976 0-2.8906-1.293-2.8906-2.8906 0-1.5977 1.293-2.8906 2.8906-2.8906 1.5977 0 2.8906 1.293 2.8906 2.8906" fill="#1c181a"/>
   <path d="m268.76 606.39s0.72656 0.0117 1.1914 0.0117c1.0391-1.0508 0.60547-3.1406 0.53516-3.4531-0.0703-0.3125-0.42578-0.92969-0.21094-1.6641 0.58594-2.1524-1.4375-2.375-1.5469-2.3828-0.10938-8e-3 -2.1719 0.23047-1.5859 2.3828 0.21484 0.73437-0.14062 1.3516-0.21094 1.6641-0.0703 0.3125-0.5039 2.4023 0.53516 3.4531 0.46484 0 1.1914-0.0117 1.1914-0.0117z" fill="#f35857"/>
   <path d="m269.79 600.5c0 0.57421-0.46875 1.043-1.043 1.043-0.57813 0-1.0469-0.46875-1.0469-1.043 0-0.57813 0.46875-1.0469 1.0469-1.0469 0.57422 0 1.043 0.46875 1.043 1.0469" fill="#1c181a"/>
   <path d="m258.37 666.98s1.2656 0.0195 2.0664 0.0195c1.8086-1.8281 1.0547-5.457 0.9336-6-0.1211-0.54688-0.73828-1.6133-0.36719-2.8945 1.0156-3.7305-2.4961-4.125-2.6836-4.1367-0.19141-0.0117-3.7734 0.40625-2.7578 4.1367 0.3711 1.2812-0.24609 2.3477-0.36718 2.8945-0.125 0.54296-0.87891 4.1719 0.92968 6 0.8086 0 2.0703-0.0195 2.0703-0.0195z" fill="#55c27a"/>
   <path d="m260.15 656.75c0 1-0.8125 1.8125-1.8125 1.8125-1.0039 0-1.8164-0.8125-1.8164-1.8125s0.8125-1.8125 1.8164-1.8125c1 0 1.8125 0.8125 1.8125 1.8125" fill="#1c181a"/>
   <path d="m256.29 697.11s2.4844 0.0312 4.0703 0.0312c3.5586-3.5898 2.0742-10.738 1.832-11.805-0.24219-1.0703-1.4531-3.1758-0.72657-5.6992 2.0039-7.3555-4.9062-8.1211-5.2812-8.1484-0.375-0.0234-7.4297 0.79297-5.4258 8.1484 0.72656 2.5234-0.48437 4.6289-0.72656 5.6992-0.23828 1.0664-1.7266 8.2148 1.832 11.805 1.5859 0 4.0742-0.0312 4.0742-0.0312z" fill="#666c4c"/>
   <path d="m259.79 676.97c0 1.9727-1.5977 3.5742-3.5703 3.5742-1.9726 0-3.5742-1.6016-3.5742-3.5742s1.6016-3.5742 3.5742-3.5742c1.9727 0 3.5703 1.6016 3.5703 3.5742" fill="#1c181a"/>
   <path d="m291.18 603.56s0.72656 8e-3 1.1914 8e-3c1.0391-1.0508 0.60547-3.1367 0.53516-3.4531-0.0742-0.30859-0.42578-0.92578-0.21484-1.6641 0.58593-2.1484-1.4336-2.375-1.543-2.3828-0.10938-4e-3 -2.1719 0.23437-1.5859 2.3828 0.21094 0.73828-0.14453 1.3555-0.21094 1.6641-0.0742 0.31641-0.50781 2.4023 0.53516 3.4531 0.46094 0 1.1875-8e-3 1.1875-8e-3z" fill="#55c27a"/>
   <path d="m292.2 597.67c0 0.57812-0.46875 1.043-1.0469 1.043-0.57422 0-1.043-0.46485-1.043-1.043 0-0.57813 0.46875-1.043 1.043-1.043 0.57812 0 1.0469 0.46484 1.0469 1.043" fill="#1c181a"/>
   <path d="m274.42 716.38s1.5195 0.0195 2.4883 0.0195c2.1719-2.1953 1.2656-6.5586 1.1172-7.2109-0.14453-0.65235-0.88282-1.9414-0.44141-3.4766 1.2227-4.4922-2.9961-4.9648-3.2266-4.9805-0.23047-0.0117-4.5391 0.48829-3.3164 4.9805 0.44531 1.5352-0.29297 2.8242-0.4414 3.4766-0.14454 0.65234-1.0547 5.0156 1.1211 7.2109 0.96875 0 2.4844-0.0195 2.4844-0.0195z" fill="#5e3f90"/>
   <path d="m276.56 704.08c0 1.207-0.97657 2.1836-2.1836 2.1836-1.2031 0-2.1758-0.97656-2.1758-2.1836s0.97266-2.1875 2.1758-2.1875c1.207 0 2.1836 0.98047 2.1836 2.1875" fill="#1c181a"/>
   <path d="m275.05 696.26s3.168 0.043 5.1953 0.043c4.5352-4.5781 2.6406-13.691 2.332-15.055-0.30859-1.3672-1.8476-4.0547-0.92578-7.2656 2.5547-9.375-6.2578-10.359-6.7344-10.395-0.47656-0.0273-9.4727 1.0195-6.918 10.395 0.92187 3.2109-0.61719 5.8984-0.92578 7.2656-0.3086 1.3633-2.2031 10.477 2.3359 15.055 2.0234 0 5.1953-0.043 5.1953-0.043z" fill="#5e3f90"/>
   <path d="m279.52 670.58c0 2.5156-2.0391 4.5547-4.5547 4.5547-2.5195 0-4.5586-2.0391-4.5586-4.5547 0-2.5195 2.0391-4.5586 4.5586-4.5586 2.5156 0 4.5547 2.0391 4.5547 4.5586" fill="#1c181a"/>
   <path d="m268.16 661.9s1.1133 0.0156 1.8203 0.0156c1.5938-1.6055 0.92578-4.8008 0.82031-5.2774-0.10937-0.48046-0.65234-1.418-0.32421-2.5469 0.89453-3.2852-2.1953-3.6328-2.3633-3.6445-0.16406-8e-3 -3.3164 0.35937-2.4219 3.6445 0.32422 1.1289-0.21875 2.0664-0.32422 2.5469-0.10937 0.47657-0.77344 3.6719 0.81641 5.2774 0.71093 0 1.8203-0.0156 1.8203-0.0156z" fill="#faad1a"/>
   <path d="m269.72 652.9c0 0.88281-0.71485 1.5976-1.5977 1.5976s-1.5977-0.71484-1.5977-1.5976c0-0.87891 0.71485-1.5977 1.5977-1.5977s1.5977 0.71875 1.5977 1.5977" fill="#1c181a"/>
   <path d="m278.55 639.08s1.5234 0.0234 2.4961 0.0234c2.1797-2.1992 1.2695-6.5781 1.1172-7.2305-0.14453-0.65625-0.88281-1.9453-0.4414-3.4883 1.2266-4.5-3.0039-4.9766-3.2344-4.9922-0.22656-0.0117-4.5469 0.49219-3.3203 4.9922 0.4414 1.543-0.29688 2.832-0.44531 3.4883-0.14844 0.65234-1.0586 5.0312 1.1211 7.2305 0.97266 0 2.4922-0.0234 2.4922-0.0234z" fill="#ee2123"/>
   <path d="m280.7 626.75c0 1.207-0.98047 2.1875-2.1875 2.1875s-2.1875-0.98047-2.1875-2.1875c0-1.2109 0.98047-2.1875 2.1875-2.1875s2.1875 0.97656 2.1875 2.1875" fill="#1c181a"/>
   <path d="m268.62 646.74s1.1992 0.0273 1.9688 0.0312c1.7305-1.7188 1.0469-5.1719 0.93359-5.6914-0.11328-0.51562-0.68359-1.5391-0.32422-2.7539 1-3.543-2.3359-3.9453-2.5156-3.957-0.17969-0.0156-3.5898 0.35156-2.6562 3.9102 0.33593 1.2188-0.25391 2.2305-0.375 2.7461-0.1211 0.51562-0.8711 3.9609 0.83203 5.7109 0.76562 8e-3 1.9648 0 1.9648 0z" fill="#5e3f90"/>
   <path d="m270.4 637.03c-8e-3 0.95313-0.78907 1.7188-1.7422 1.707-0.95313-8e-3 -1.7188-0.78515-1.707-1.7383 8e-3 -0.95312 0.78515-1.7226 1.7383-1.7109 0.95312 8e-3 1.7188 0.78515 1.7109 1.7422" fill="#1c181a"/>
   <path d="m292.04 683.91s2.1211 0.0273 3.4766 0.0273c3.0352-3.0664 1.7695-9.1641 1.5625-10.078-0.20703-0.91406-1.2383-2.707-0.61719-4.8594 1.707-6.2773-4.1914-6.9336-4.5078-6.9531-0.32031-0.0195-6.3398 0.67579-4.6328 6.9531 0.61718 2.1523-0.41407 3.9453-0.61719 4.8594-0.20703 0.91407-1.4727 7.0117 1.5625 10.078 1.3555 0 3.4766-0.0273 3.4766-0.0273z" fill="#55c27a"/>
   <path d="m295.02 666.72c0 1.6836-1.3633 3.0508-3.0508 3.0508-1.6836 0-3.0469-1.3672-3.0469-3.0508s1.3633-3.0508 3.0469-3.0508c1.6875 0 3.0508 1.3672 3.0508 3.0508" fill="#1c181a"/>
   <path d="m286.78 715.62s0.94922 0.0117 1.5547 0.0117c1.3555-1.3672 0.79297-4.0938 0.69922-4.5039-0.0937-0.40625-0.55469-1.2109-0.27734-2.1719 0.76171-2.8008-1.8711-3.0976-2.0117-3.1055-0.14453-8e-3 -2.832 0.30468-2.0703 3.1055 0.27735 0.96094-0.18359 1.7656-0.27734 2.1719-0.0898 0.41016-0.66016 3.1367 0.69922 4.5039 0.60547 0 1.5547-0.0117 1.5547-0.0117z" fill="#55c27a"/>
   <path d="m288.11 707.94c0 0.75391-0.60937 1.3633-1.3594 1.3633-0.75391 0-1.3633-0.60937-1.3633-1.3633s0.60938-1.3633 1.3633-1.3633c0.75 0 1.3594 0.60937 1.3594 1.3633" fill="#1c181a"/>
   <path d="m289.44 699.9s1.0742 0.0156 1.7578 0.0156c1.5352-1.5547 0.89453-4.6367 0.79297-5.0976-0.10547-0.46094-0.62891-1.3672-0.31641-2.457 0.86329-3.1719-2.1172-3.5078-2.2773-3.5156-0.16016-0.0117-3.207 0.34375-2.3438 3.5156 0.31641 1.0898-0.20703 1.9961-0.3125 2.457-0.10156 0.46093-0.74219 3.543 0.78906 5.0976 0.6875 0 1.7578-0.0156 1.7578-0.0156z" fill="#e680c0"/>
   <path d="m290.95 691.21c0 0.85156-0.69141 1.543-1.543 1.543s-1.5391-0.69141-1.5391-1.543c0-0.85547 0.6875-1.5469 1.5391-1.5469s1.543 0.6914 1.543 1.5469" fill="#1c181a"/>
   <path d="m293.76 657.63s3.3789 0.0469 5.5391 0.0469c4.8359-4.8828 2.8203-14.605 2.4883-16.059-0.32813-1.457-1.9688-4.3203-0.98438-7.7461 2.7227-10.004-6.6758-11.055-7.1836-11.082-0.50781-0.0312-10.102 1.0781-7.3789 11.082 0.98829 3.4258-0.66015 6.2891-0.98437 7.7461-0.33203 1.4531-2.3516 11.176 2.4883 16.059 2.1602 0 5.5391-0.0469 5.5391-0.0469z" fill="#f35857"/>
   <path d="m298.52 630.23c0 2.6836-2.1758 4.8594-4.8594 4.8594s-4.8594-2.1758-4.8594-4.8594c0-2.6836 2.1758-4.8594 4.8594-4.8594s4.8594 2.1758 4.8594 4.8594" fill="#1c181a"/>
   <path d="m279.57 660.73s0.94531 0.0117 1.5547 0.0117c1.3516-1.3672 0.78907-4.0938 0.69532-4.5-0.0937-0.41015-0.55079-1.2109-0.27344-2.1719 0.76172-2.8047-1.875-3.1016-2.0156-3.1094-0.14453-8e-3 -2.832 0.30469-2.0703 3.1094 0.27734 0.96094-0.18359 1.7617-0.27734 2.1719-0.0937 0.40625-0.65625 3.1328 0.69922 4.5 0.60156 0 1.5508-0.0117 1.5508-0.0117z" fill="#5280c1"/>
   <path d="m280.9 653.05c0 0.7539-0.60938 1.3633-1.3633 1.3633-0.75 0-1.3594-0.60938-1.3594-1.3633 0-0.75391 0.60938-1.3633 1.3594-1.3633 0.7539 0 1.3633 0.60937 1.3633 1.3633" fill="#1c181a"/>
   <path d="m308.29 676.97s2.2812 0.0312 3.7383 0.0312c3.2656-3.293 1.9023-9.8516 1.6797-10.836-0.21875-0.98047-1.332-2.918-0.66407-5.2266 1.8359-6.7539-4.5078-7.457-4.8476-7.4805-0.34375-0.0195-6.8203 0.72656-4.9805 7.4805 0.66797 2.3086-0.44531 4.2461-0.66406 5.2266-0.22657 0.98438-1.5859 7.543 1.6797 10.836 1.457 0 3.7383-0.0312 3.7383-0.0312z" fill="#e680c0"/>
   <path d="m311.51 658.48c0 1.8086-1.4648 3.2774-3.2734 3.2774-1.8125 0-3.2812-1.4688-3.2812-3.2774 0-1.8125 1.4688-3.2812 3.2812-3.2812 1.8086 0 3.2734 1.4688 3.2734 3.2812" fill="#1c181a"/>
   <path d="m319.33 680.06s1.0703 0.0156 1.7578 0.0156c1.5352-1.5508 0.89453-4.6367 0.78906-5.0977s-0.625-1.3711-0.3125-2.457c0.86328-3.1758-2.1172-3.5078-2.2812-3.5156-0.16016-0.0117-3.2031 0.33984-2.3398 3.5156 0.3125 1.0859-0.20704 1.9961-0.3125 2.457-0.10547 0.46094-0.7461 3.5469 0.78906 5.0977 0.68359 0 1.7578-0.0156 1.7578-0.0156z" fill="#666c4c"/>
   <path d="m320.84 671.37c0 0.84765-0.6875 1.543-1.5391 1.543-0.85156 0-1.543-0.69532-1.543-1.543 0-0.85547 0.6914-1.543 1.543-1.543 0.85157 0 1.5391 0.6875 1.5391 1.543" fill="#1c181a"/>
   <path d="m308.56 627.69s1.5273 0.0195 2.5 0.0195c2.1836-2.1992 1.2734-6.5859 1.125-7.2422-0.14844-0.66016-0.89063-1.9492-0.44532-3.4961 1.2266-4.5156-3.0156-4.9883-3.2422-5.0039-0.23047-0.0117-4.5586 0.48828-3.332 5.0039 0.44531 1.5469-0.29688 2.8359-0.44532 3.4961-0.14453 0.65625-1.0586 5.043 1.125 7.2422 0.97266 0 2.5-0.0195 2.5-0.0195z" fill="#55c27a"/>
   <path d="m310.7 615.33c0 1.2109-0.98046 2.1914-2.1914 2.1914s-2.1953-0.98047-2.1953-2.1914c0-1.2148 0.98437-2.1953 2.1953-2.1953s2.1914 0.98047 2.1914 2.1953" fill="#1c181a"/>
   <path d="m292.77 619.83s1.3086 0.0195 2.1445 0.0195c1.875-1.8906 1.0938-5.6562 0.96484-6.2227-0.12891-0.5625-0.76172-1.6719-0.38281-2.9961 1.0586-3.875-2.5859-4.2852-2.7812-4.2969-0.19532-0.0117-3.9141 0.42188-2.8594 4.2969 0.38281 1.3242-0.2539 2.4336-0.3789 2.9961-0.12891 0.56641-0.91016 4.332 0.96484 6.2227 0.83203 0 2.1445-0.0195 2.1445-0.0195z" fill="#666c4c"/>
   <path d="m294.61 609.22c0 1.0391-0.83984 1.8789-1.8828 1.8789-1.0391 0-1.8828-0.83985-1.8828-1.8789s0.84375-1.8828 1.8828-1.8828c1.043 0 1.8828 0.84375 1.8828 1.8828" fill="#1c181a"/>
   <path d="m300.2 613.09s0.72656 0.0117 1.1875 0.0117c1.0391-1.0508 0.60547-3.1406 0.53515-3.4531-0.0703-0.3125-0.42187-0.92969-0.21093-1.6641 0.58593-2.1523-1.4375-2.375-1.5469-2.3828-0.10547-8e-3 -2.168 0.23047-1.582 2.3828 0.21094 0.73438-0.14453 1.3516-0.21484 1.6641-0.0703 0.3125-0.50391 2.4023 0.53515 3.4531 0.46485 0 1.1914-0.0117 1.1914-0.0117z" fill="#faad1a"/>
   <path d="m301.22 607.2c0 0.57422-0.46875 1.043-1.0469 1.043-0.57421 0-1.043-0.46875-1.043-1.043 0-0.57812 0.46875-1.0469 1.043-1.0469 0.57813 0 1.0469 0.46875 1.0469 1.0469" fill="#1c181a"/>
   <path d="m300.44 621.59s0.54687 0.0117 0.89453 0.0117c0.77734-0.78906 0.45312-2.3594 0.39843-2.5898-0.0508-0.23437-0.3164-0.69921-0.15625-1.25 0.4375-1.6133-1.0781-1.7812-1.1602-1.7891-0.082-4e-3 -1.6289 0.17578-1.1914 1.7891 0.16016 0.55079-0.10547 1.0156-0.15625 1.25-0.0547 0.23047-0.3789 1.8008 0.39844 2.5898 0.35156 0 0.89453-0.0117 0.89453-0.0117z" fill="#faad1a"/>
   <path d="m301.21 617.18c0 0.43359-0.35157 0.78125-0.78516 0.78125s-0.78125-0.34766-0.78125-0.78125c0-0.4336 0.34766-0.78516 0.78125-0.78516s0.78516 0.35156 0.78516 0.78516" fill="#1c181a"/>
   <path d="m242.11 672.03s3.9844 0.0547 6.5312 0.0547c5.7031-5.7578 3.3242-17.219 2.9375-18.934-0.39063-1.7188-2.3242-5.0976-1.1641-9.1367 3.2109-11.793-7.8711-13.031-8.4688-13.066-0.11329-8e-3 -0.59375 0.0312-1.2774 0.17578-0.1875 0.83594-0.42187 1.9258-0.67578 3.2344 0.62109-0.23046 1.2969-0.35937 2-0.35937 3.1641 0 5.7305 2.5664 5.7305 5.7305s-2.5664 5.7305-5.7305 5.7305c-1.3711 0-2.6289-0.48438-3.6133-1.2891-1.0312 7.668-1.8281 17.547-1.2617 27.906 2.1914-0.0156 4.4297-0.0469 4.4297-0.0469z" fill="#ee2123"/>
   <path d="m246.4 629.05h0.26563s1.875 0.0234 3.0703 0.0234c2.6797-2.707 1.5625-8.0898 1.3789-8.8984-0.18359-0.80469-1.0898-2.3906-0.54687-4.2891 1.2969-4.7656-2.3672-5.8633-3.5977-6.0898-0.0859 0.46875-0.17968 0.92969-0.27343 1.3867 1.4492 0.0469 2.6055 1.2305 2.6055 2.6875 0 1.4883-1.2031 2.6914-2.6914 2.6914-0.42188 0-0.81641-0.0977-1.1758-0.26953-0.8711 3.0703-1.8516 5.8555-2.707 8.2891-0.26563 0.74219-0.51563 1.457-0.7461 2.1367 0.26953 0.875 0.69531 1.6953 1.3516 2.3555 1.1953 0 3.0664-0.0234 3.0664-0.0234" fill="#e680c0"/>
   <path d="m251.34 595.33c-0.21484-0.95703-1.293-2.8398-0.64453-5.0938 1.7891-6.5742-4.3906-7.2617-4.7226-7.2852-0.0742-4e-3 -0.4336 0.0274-0.92969 0.14844 0.11328 0.53516 0.23828 1.0703 0.36719 1.6133 0.1914-0.0391 0.38671-0.0586 0.58984-0.0586 1.7656 0 3.1953 1.4297 3.1953 3.1953 0 1.4336-0.94922 2.6484-2.25 3.0508 1.0859 5.3008 1.1289 10.324 0.60156 14.969 0.69532 8e-3 1.5117 0.0156 2.1602 0.0156 3.1797-3.2109 1.8516-9.5977 1.6328-10.555" fill="#5280c1"/>
   <path d="m245.58 579.83s2.6094 0.0352 4.2774 0.0352c3.7344-3.7734 2.1758-11.277 1.9219-12.402-0.2539-1.125-1.5234-3.3359-0.76172-5.9844 1.582-5.8164-2.1406-7.7109-4.2461-8.3008-0.25781 0.58594-0.5 1.1836-0.72656 1.7852 1.8125 0.26172 3.2109 1.8203 3.2109 3.7109 0 2.0703-1.6797 3.7539-3.7539 3.7539-0.48828 0-0.95313-0.0977-1.3828-0.26953-0.89453 5.3555-0.80078 11.258 0.29297 17.68 0.48046-4e-3 0.79687-8e-3 0.79687-8e-3z" fill="#55c27a"/>
   <path d="m306.52 550.71c1.6016-3.8398 0.55078-8.8906 0.34766-9.7891-0.22657-0.99218-1.2578-2.8633-0.90235-5.1289-0.77734-0.44531-1.5508-0.85938-2.3242-1.2461-0.67187 0.875-1.7266 1.4453-2.918 1.4453-2.0274 0-3.6758-1.6445-3.6758-3.6758 0-0.17969 0.0195-0.35547 0.043-0.52735-0.74609-0.25781-1.4726-0.49609-2.1758-0.70703-0.2539 1.0586-0.24219 2.3672 0.19531 3.9844 0.7461 2.5898-0.49609 4.7578-0.74609 5.8555-0.043 0.19141-0.12109 0.5625-0.20312 1.0625 4.8906 1.7148 9.1602 4.7695 12.359 8.7266" fill="#f35857"/>
   <path d="m312.51 540.38c0.6836 0.58984 1.3555 1.2031 2.0078 1.8516-0.21484-1.3438-1.4648-1.7422-2.0078-1.8516" fill="#666c4c"/>
   <path d="m313.72 542.56c0 0.80078-0.64844 1.4492-1.4453 1.4492-0.80469 0-1.4531-0.64844-1.4531-1.4492s0.64844-1.4492 1.4531-1.4492c0.79687 0 1.4453 0.64844 1.4453 1.4492m-3.6602 1.0859c0.29297 1.0195-0.19922 1.875-0.29687 2.3086-0.0977 0.43359-0.69922 3.332 0.74219 4.7891 0.64453 0 1.6523-0.0156 1.6523-0.0156h0.14453s1.0078 0.0156 1.6523 0.0156c1.4414-1.457 0.83985-4.3555 0.73829-4.7891-0.0977-0.43359-0.58594-1.2891-0.28907-2.3086 0.14844-0.5625 0.17578-1.0312 0.11328-1.418-0.65234-0.64844-1.3242-1.2617-2.0117-1.8516-0.12891-0.0234-0.22266-0.0352-0.2461-0.0352-0.15234-8e-3 -3.0156 0.32031-2.1992 3.3047" fill="#666c4c"/>
   <path d="m317.79 568.99c0.60156 2.082-0.39844 3.8242-0.60156 4.7109-0.19922 0.88672-1.4258 6.8008 1.5156 9.7695 1.3164 0 3.3711-0.0273 3.3711-0.0273h0.28907s0.48437 4e-3 1.1289 0.0117c1.25-5.6328 1.7891-10.895 1.6211-15.758-0.38672 1.1836-1.4961 2.0352-2.8086 2.0352-1.6328 0-2.957-1.3242-2.957-2.9531 0-1.6328 1.3242-2.957 2.957-2.957 1.1953 0 2.2148 0.70703 2.6836 1.7227-0.0664-0.85156-0.16016-1.6914-0.27344-2.5156-1.1328-0.64843-2.3008-0.77343-2.4375-0.78125-0.30859-0.0195-6.1445 0.65625-4.4883 6.7422" fill="#e680c0"/>
   <path d="m320.02 588.92c-0.57421 0-1.0469-0.46875-1.0469-1.0469 0-0.57422 0.47266-1.043 1.0469-1.043 0.57813 0 1.0469 0.46875 1.0469 1.043 0 0.57812-0.46875 1.0469-1.0469 1.0469m1.5312-0.26562c0.58985-2.1484-1.4336-2.375-1.5391-2.3789-0.10937-8e-3 -2.1719 0.23047-1.5898 2.3789 0.21484 0.73828-0.13672 1.3555-0.21094 1.668-0.0703 0.3125-0.50391 2.4023 0.53516 3.4492 0.46484 0 1.1914-8e-3 1.1914-8e-3h0.10157s0.67578 8e-3 1.1406 8e-3c0.15625-1.1172 0.35156-2.25 0.59766-3.3945-4e-3 -0.0195-8e-3 -0.043-0.0117-0.0547-0.0703-0.3125-0.42188-0.92969-0.21485-1.668" fill="#faad1a"/>
   <path d="m309.93 703.3c-4.7461 0-8.5938-3.8477-8.5938-8.5898 0-4.7461 3.8477-8.5938 8.5938-8.5938 4.7422 0 8.5859 3.8476 8.5859 8.5938 0 4.7422-3.8438 8.5898-8.5859 8.5898m12.625-2.1641c4.8125-17.688-11.805-19.539-12.703-19.594-0.89844-0.0586-17.859 1.9062-13.047 19.594 1.7461 6.0547-1.1641 11.121-1.7422 13.691-0.0781 0.34766-0.21093 0.96875-0.36328 1.7891 6.1211 0.0703 14.211 0.14453 20.555 0.14843 2.7109-2.8242 5-5.9492 6.9375-9.2852-0.29297-1.918-0.29297-4.0586 0.36328-6.3438" fill="#faad1a"/>
   <path d="m238.24 678.14c0-1.4883 1.2031-2.6914 2.6914-2.6914s2.6914 1.2031 2.6914 2.6914c0 1.4883-1.2031 2.6914-2.6914 2.6914s-2.6914-1.2031-2.6914-2.6914m2.7461 15.18s1.875 0.0234 3.0703 0.0234c2.6797-2.7031 1.5625-8.0898 1.3789-8.8945-0.17969-0.8086-1.0938-2.3945-0.54688-4.2969 1.5078-5.5391-3.6992-6.1211-3.9805-6.1367-0.17579-0.0117-2.3242 0.22657-3.5391 1.7656 0.50782 5.8633 1.4883 11.816 3.1367 17.543 0.13672-4e-3 0.21485-4e-3 0.21485-4e-3z" fill="#5e3f90"/>
   <path d="m260.23 579.94c-0.0156 0-0.0273 4e-3 -0.0391 4e-3 -2.0742 0-3.7539-1.6797-3.7539-3.7539 0-1.25 0.61719-2.3555 1.5586-3.0352-0.12891-0.6875-0.23438-1.3789-0.3125-2.0781-2.0938 0.91016-4.5508 3.0508-3.2227 7.9219 0.76172 2.6484-0.50781 4.8555-0.76172 5.9805-0.2539 1.125-1.8125 8.6328 1.9219 12.402 1.668 0 4.2773-0.0352 4.2773-0.0352h0.36719s2.6133 0.0352 4.2812 0.0352c2.2266-2.25 2.5703-5.832 2.4297-8.5938-2.8047-2.4492-5.1133-5.457-6.7461-8.8476" fill="#f35857"/>
   <path d="m267.25 547c-0.10156-1.3672-0.32422-2.4336-0.40234-2.7774-0.21094-0.9414-1.2734-2.793-0.63672-5.0117 0.60937-2.2383 0.27734-3.7812-0.42578-4.8438-0.51172 0.25391-1.0312 0.51563-1.5547 0.79297 0.3164 0.49219 0.5039 1.0742 0.5039 1.7031 0 1.7344-1.4062 3.1406-3.1406 3.1406-1.1445 0-2.1406-0.61328-2.6914-1.5234-0.65625 0.47657-1.3086 0.97266-1.9531 1.5 0.24219 1.8711-0.60547 3.4102-0.79297 4.2422-0.21484 0.94141-1.5195 7.2266 1.6094 10.383 1.0625 0 2.5781-0.0156 3.2422-0.0234 1.6172-2.8867 3.7383-5.4531 6.2422-7.582" fill="#ca642c"/>
   <path d="m274.06 539.72c-1.1562 0-2.0938-0.9375-2.0938-2.0938s0.9375-2.0977 2.0938-2.0977 2.0938 0.94141 2.0938 2.0977-0.9375 2.0938-2.0938 2.0938m3.0781-0.52735c1.1758-4.3125-2.8789-4.7656-3.0977-4.7773-0.21484-0.0156-4.3555 0.46484-3.1797 4.7773 0.42579 1.4766-0.28515 2.7109-0.42578 3.3398-0.0625 0.26953-0.2539 1.1875-0.29297 2.3203 2.1797-1.4102 4.5703-2.5195 7.1094-3.2774-0.20313-0.64062-0.37891-1.4648-0.11328-2.3828" fill="#e680c0"/>
   <path d="m290.51 540.98c0.67187-2.6641 0.0469-5.6641-0.0899-6.2539-0.17969-0.82031-1.1094-2.4375-0.55469-4.3672 0.0508-0.19141 0.0937-0.37109 0.13282-0.55469-0.60547-0.125-1.168-0.23437-1.6836-0.32812-0.4375 0.92578-1.3789 1.5703-2.4766 1.5703-1.2383 0-2.2852-0.82031-2.625-1.9492-0.49219 0.0586-1.0859 0.14063-1.7695 0.25391 0.043 0.3164 0.11328 0.65234 0.20703 1.0078 0.55859 1.9297-0.36719 3.5469-0.55469 4.3672-0.1289 0.57422-0.72265 3.4219-0.14062 6.0273 1.3476-0.20312 2.7266-0.30859 4.1289-0.30859 1.8594 0 3.6719 0.18359 5.4258 0.53515" fill="#5e3f90"/>
   <path d="m311.87 554.84c1.1367 0 2.0586 0.92188 2.0586 2.0586s-0.92187 2.0586-2.0586 2.0586c-0.28516 0-0.5625-0.0625-0.8125-0.16797 1.0273 2.8867 1.5938 5.9922 1.5938 9.2266 0 0.16797-8e-3 0.33594-8e-3 0.4961 0.48438 8e-3 1.125 0.0117 1.6172 0.0117 2.0469-2.0664 1.1914-6.1875 1.0547-6.8047-0.14063-0.61719-0.83594-1.8281-0.41797-3.2812 1.1523-4.2383-2.832-4.6836-3.0469-4.6953-0.125-8e-3 -1.5859 0.15234-2.5312 1.1484 0.22656 0.41016 0.43359 0.82813 0.63671 1.25 0.30469-0.76171 1.0469-1.3008 1.9141-1.3008" fill="#5e3f90"/>
   <path d="m314.15 574.83c0.63281-2.3359-0.94141-3.0352-1.7305-3.2344-0.043 0.32031-0.0898 0.64062-0.14062 0.95703l1.1875 1.1914c0 0.79687-0.64844 1.4492-1.4492 1.4492-0.10547 0-0.20703-0.0117-0.30469-0.0352-0.52344 1.9453-1.25 3.8047-2.1641 5.5547 0.14844 0.44922 0.36719 0.87109 0.70703 1.2109 0.64062 0 1.6484-0.0117 1.6484-0.0117h0.14062s1.0117 0.0117 1.6524 0.0117c1.4453-1.457 0.84375-4.3516 0.74609-4.7891-0.0977-0.43359-0.58984-1.2852-0.29297-2.3047" fill="#55c27a"/>
   <path d="m301.42 592.74c0 0.96484-0.77734 1.7422-1.7422 1.7422-0.96094 0-1.7422-0.77734-1.7422-1.7422 0-0.125 0.0156-0.25 0.0391-0.3711-0.37109 0.19922-0.75 0.39063-1.1289 0.57032 8e-3 0.33203 0.0586 0.69531 0.17187 1.1055 0.35156 1.2305-0.23828 2.2578-0.35547 2.7774-0.11719 0.52344-0.84375 4.0078 0.89453 5.7617 0.77344 0 1.9844-0.0195 1.9844-0.0195h0.17187s1.2148 0.0195 1.9883 0.0195c1.7344-1.7539 1.0117-5.2383 0.89063-5.7617-0.11719-0.51953-0.70703-1.5469-0.35156-2.7774 0.5664-2.0781-0.32813-3.0781-1.2188-3.5547-0.27735 0.19922-0.5625 0.39062-0.85157 0.58203 0.72266 0.21094 1.25 0.8789 1.25 1.668" fill="#faad1a"/>
   <path d="m283.75 599.41c0 1.9727-1.5977 3.5703-3.5703 3.5703-1.9766 0-3.5742-1.5976-3.5742-3.5703 0-1.9726 1.5976-3.5742 3.5742-3.5742 1.9726 0 3.5703 1.6016 3.5703 3.5742m-9.0273 2.6719c0.72265 2.5195-0.48829 4.625-0.72657 5.6953-0.24218 1.0703-1.7266 8.2188 1.8281 11.809 1.5898 0 4.0742-0.0312 4.0742-0.0312h0.35156s2.4883 0.0312 4.0703 0.0312c3.5586-3.5898 2.0781-10.738 1.832-11.809-0.24218-1.0703-1.4492-3.1758-0.72265-5.6953 0.91797-3.3711-0.0391-5.3555-1.3789-6.5234-2.1875-0.0781-4.3125-0.41797-6.3477-0.98047-1.9726 0.88672-4.2266 2.9336-2.9805 7.5039" fill="#e680c0"/>
   <path d="m245.36 701.23c-1.0078 0-1.8242-0.8164-1.8242-1.8242 0-1.0039 0.8164-1.8281 1.8242-1.8281 1.0078 0 1.8242 0.82422 1.8242 1.8281 0 1.0078-0.8164 1.8242-1.8242 1.8242m3.0508 2.4453c-0.1211-0.54688-0.73829-1.6211-0.3711-2.9062 1.0234-3.7539-2.5039-4.1484-2.6953-4.1602-0.15625-8e-3 -2.6055 0.26953-2.918 2.4492 1.4062 3.6484 3.1328 7.1602 5.2383 10.441 1.5742-1.8906 0.86719-5.2969 0.7461-5.8242" fill="#f35857"/>
   <path d="m259.98 712.4c-2.6289 0-4.7578-2.1289-4.7578-4.7539 0-2.6289 2.1289-4.7578 4.7578-4.7578 2.625 0 4.7578 2.1289 4.7578 4.7578 0 2.625-2.1328 4.7539-4.7578 4.7539m6.9922-1.1953c2.6641-9.793-6.5391-10.82-7.0352-10.852-0.49609-0.0273-9.8906 1.0586-7.2227 10.852 0.51563 1.7969 0.29297 3.4375-0.0742 4.7891 0.23829 0.26172 0.48047 0.51953 0.72266 0.77343 4.2188-4e-3 9.2148-0.0351 13.887-0.0781-0.47266-1.4727-0.88672-3.3711-0.27734-5.4844" fill="#e680c0"/>
   <path d="m328.45 666.94c0-1.9297 1.3945-3.5274 3.2305-3.8594-8e-3 -0.69531-0.0234-1.3828-0.043-2.0664-1.957 0.36719-7.1016 2.0938-5.2578 8.8672 0.79687 2.7656-0.53516 5.0781-0.79688 6.2539-0.26562 1.1797-1.8984 9.0273 2.0117 12.973 0.48438 0 1.0469 0 1.6055-8e-3 1.3906-6.0586 2.1055-12.281 2.3672-18.316-1.7773-0.3711-3.1172-1.9492-3.1172-3.8438" fill="#5e3f90"/>
   <path d="m316.38 616.74c0.63281 2.1914-0.41797 4.0234-0.625 4.9531-0.21485 0.92968-1.5039 7.1445 1.5898 10.266 1.3789 0 3.5391-0.0273 3.5391-0.0273h0.30469s2.1641 0.0273 3.543 0.0273c1.3164-1.3242 1.8359-3.2109 1.9883-5.0117-0.25781-0.75-0.53125-1.5352-0.82813-2.3633-0.82421-2.3398-1.7578-5.0039-2.6055-7.9375-0.55469 0.54297-1.3203 0.875-2.1602 0.875-1.7148 0-3.1055-1.3906-3.1055-3.1055 0-1.7148 1.3906-3.1055 3.1055-3.1055 0.29687 0 0.58203 0.043 0.84766 0.1211-0.11719-0.5586-0.22657-1.1211-0.33204-1.6953-0.28906-0.0586-0.48828-0.0781-0.53906-0.082-0.32422-0.0195-6.4609 0.69141-4.7226 7.0859" fill="#666c4c"/>
   <path d="m308.16 644.24s1.3203 0.0195 2.168 0.0195c1.8906-1.9102 1.0976-5.7109 0.97265-6.2812-0.1289-0.5664-0.76953-1.6914-0.38671-3.0312 1.0625-3.9102-2.6133-4.3203-2.8125-4.3359-0.19922-0.0117-3.9492 0.42579-2.8828 4.3359 0.38282 1.3398-0.25781 2.4648-0.38672 3.0312-0.1289 0.57031-0.91796 4.3711 0.97266 6.2812 0.84375 0 2.168-0.0195 2.168-0.0195z" fill="#faad1a"/>
   <path d="m310.02 633.52c0 1.0508-0.85156 1.9023-1.8984 1.9023-1.0508 0-1.9024-0.85156-1.9024-1.9023 0-1.0469 0.85157-1.9024 1.9024-1.9024 1.0469 0 1.8984 0.85547 1.8984 1.9024" fill="#1c181a"/>
   <path d="m320.36 665.39s1.6367 0.0195 2.6797 0.0195c2.3398-2.3633 1.3594-7.0664 1.2031-7.7695-0.16016-0.70313-0.95313-2.0859-0.47657-3.7461 1.3164-4.8359-3.2305-5.3438-3.4766-5.3594-0.24609-0.0117-4.8867 0.52344-3.5664 5.3594 0.47656 1.6602-0.32032 3.043-0.48047 3.7461-0.15625 0.70312-1.1328 5.4062 1.207 7.7695 1.043 0 2.6797-0.0195 2.6797-0.0195z" fill="#f35857"/>
   <path d="m322.66 652.13c0 1.2969-1.0508 2.3477-2.3516 2.3477-1.2969 0-2.3476-1.0508-2.3476-2.3477 0-1.2969 1.0508-2.3476 2.3476-2.3476 1.3008 0 2.3516 1.0508 2.3516 2.3476" fill="#1c181a"/>
   <path d="m317.5 646.02s1.1953 0.0391 1.9609 0.0547c1.7422-1.6953 1.0977-5.1484 0.98828-5.6641-0.10547-0.51562-0.66797-1.543-0.29687-2.7461 1.0312-3.5195-2.2852-3.9531-2.4648-3.9688-0.17968-0.0156-3.582 0.3125-2.6875 3.8711 0.32422 1.2188-0.27343 2.2188-0.39843 2.7305-0.12891 0.51563-0.91016 3.9375 0.76953 5.6953 0.76562 0.0195 1.9609 0.0274 1.9609 0.0274z" fill="#ee2123"/>
   <path d="m319.37 636.36c-0.0195 0.95313-0.80078 1.707-1.75 1.6875-0.95313-0.0156-1.707-0.80078-1.6875-1.7539 0.0156-0.94921 0.80078-1.7031 1.75-1.6797 0.94922 0.0156 1.707 0.80078 1.6875 1.7461" fill="#1c181a"/>
   <path d="m277.06 648.49s0.72657 4e-3 1.1914 4e-3c1.0391-1.0469 0.60547-3.1328 0.53516-3.4492-0.0742-0.3125-0.42579-0.92578-0.21094-1.6602 0.58203-2.1562-1.4375-2.3789-1.5469-2.3867-0.10937-8e-3 -2.1719 0.23047-1.5859 2.3867 0.21484 0.73437-0.14063 1.3476-0.21094 1.6602-0.0742 0.31641-0.50781 2.4024 0.53125 3.4492 0.46875 0 1.1914-4e-3 1.1914-4e-3z" fill="#666c4c"/>
   <path d="m278.08 642.6c0 0.57813-0.46484 1.0469-1.043 1.0469-0.57422 0-1.043-0.46875-1.043-1.0469 0-0.57422 0.46875-1.043 1.043-1.043 0.57812 0 1.043 0.46875 1.043 1.043" fill="#1c181a"/>
   <path d="m326.39 646.94s0.94922 0.0117 1.5547 0.0117c1.3555-1.3672 0.78906-4.0898 0.69531-4.5-0.0898-0.40625-0.55078-1.2109-0.27343-2.1719 0.76172-2.8047-1.875-3.0977-2.0156-3.1094-0.14453-8e-3 -2.832 0.30469-2.0703 3.1094 0.27734 0.96094-0.18359 1.7656-0.27734 2.1719-0.0899 0.41016-0.66016 3.1328 0.69921 4.5 0.60547 0 1.5547-0.0117 1.5547-0.0117z" fill="#55c27a"/>
   <path d="m327.73 639.26c0 0.75-0.60937 1.3633-1.3633 1.3633s-1.3633-0.61328-1.3633-1.3633c0-0.75391 0.60937-1.3633 1.3633-1.3633s1.3633 0.60937 1.3633 1.3633" fill="#1c181a"/>
   <path d="m307.69 651.71s0.51953 8e-3 0.85156 8e-3c0.74609-0.75391 0.43359-2.2461 0.38672-2.4727-0.0547-0.22265-0.30469-0.66015-0.15625-1.1914 0.42187-1.5352-1.0234-1.6992-1.1016-1.7031-0.0781-4e-3 -1.5547 0.16797-1.1367 1.7031 0.15234 0.53125-0.10157 0.96875-0.15235 1.1914-0.0508 0.22657-0.35937 1.7188 0.38281 2.4727 0.33204 0 0.85547-8e-3 0.85547-8e-3z" fill="#55c27a"/>
   <path d="m308.43 647.5c0 0.41407-0.33594 0.75-0.75 0.75-0.41016 0-0.74609-0.33593-0.74609-0.75 0-0.41015 0.33593-0.74609 0.74609-0.74609 0.41406 0 0.75 0.33594 0.75 0.74609" fill="#1c181a"/>
  </g>
 </g>
</svg>
